<svg width="9" height="15" viewBox="0 0 9 15" fill="none" xmlns="http://www.w3.org/2000/svg">
<path d="M1.079 14.811C1.205 14.937 1.352 15 1.52 15C1.667 15 1.835 14.937 1.94 14.811L8.576 8.133L8.597 8.112C8.618 8.091 8.639 8.091 8.639 8.07C8.723 7.965 8.765 7.818 8.765 7.692C8.765 7.545 8.702 7.377 8.597 7.272L8.576 7.251L1.94 0.531C1.709 0.320999 1.31 0.299999 1.079 0.531C0.869 0.782999 0.869 1.161 1.079 1.413L7.337 7.692L1.079 13.992C0.869 14.223 0.869 14.58 1.079 14.811Z" fill="black"/>
</svg>
