<svg width="16" height="16" viewBox="0 0 16 16" fill="none" xmlns="http://www.w3.org/2000/svg">
<path fill-rule="evenodd" clip-rule="evenodd" d="M15.2265 0.773961C15.3138 0.861046 15.383 0.964501 15.4303 1.0784C15.4776 1.19229 15.5019 1.3144 15.5019 1.43771C15.5019 1.56102 15.4776 1.68313 15.4303 1.79702C15.383 1.91092 15.3138 2.01438 15.2265 2.10146L2.10146 15.2265C1.92542 15.4025 1.68666 15.5014 1.43771 15.5014C1.18875 15.5014 0.949995 15.4025 0.773957 15.2265C0.59792 15.0504 0.499023 14.8117 0.499023 14.5627C0.499023 14.3138 0.59792 14.075 0.773957 13.899L13.899 0.773961C13.986 0.686655 14.0895 0.617387 14.2034 0.570125C14.3173 0.522863 14.4394 0.498535 14.5627 0.498535C14.686 0.498535 14.8081 0.522863 14.922 0.570125C15.0359 0.617387 15.1394 0.686655 15.2265 0.773961Z" fill="white"/>
<path fill-rule="evenodd" clip-rule="evenodd" d="M0.773961 0.773961C0.686655 0.861046 0.617387 0.964501 0.570125 1.0784C0.522863 1.19229 0.498535 1.3144 0.498535 1.43771C0.498535 1.56102 0.522863 1.68313 0.570125 1.79702C0.617387 1.91092 0.686655 2.01438 0.773961 2.10146L13.899 15.2265C14.075 15.4025 14.3138 15.5014 14.5627 15.5014C14.8117 15.5014 15.0504 15.4025 15.2265 15.2265C15.4025 15.0504 15.5014 14.8117 15.5014 14.5627C15.5014 14.3138 15.4025 14.075 15.2265 13.899L2.10146 0.773961C2.01438 0.686655 1.91092 0.617387 1.79702 0.570125C1.68313 0.522863 1.56102 0.498535 1.43771 0.498535C1.3144 0.498535 1.19229 0.522863 1.0784 0.570125C0.964501 0.617387 0.861046 0.686655 0.773961 0.773961Z" fill="white"/>
</svg>
