<svg width="9" height="15" viewBox="0 0 9 15" fill="none" xmlns="http://www.w3.org/2000/svg">
<path d="M7.106 14.811C7.232 14.937 7.379 15 7.526 15C7.694 15 7.862 14.937 7.967 14.811C8.177 14.58 8.177 14.223 7.967 13.992L1.709 7.692L7.967 1.413C8.177 1.161 8.177 0.782999 7.967 0.531C7.736 0.299999 7.337 0.320999 7.106 0.531L0.47 7.251L0.449 7.272L0.386 7.335C0.365 7.356 0.344 7.398 0.323 7.44C0.302 7.503 0.281 7.545 0.281 7.587C0.26 7.65 0.26 7.713 0.281 7.776C0.281 7.818 0.281 7.839 0.302 7.881C0.302 7.902 0.302 7.923 0.323 7.944C0.323 7.944 0.323 7.965 0.344 7.986C0.365 8.028 0.407 8.07 0.449 8.112L0.47 8.133L7.106 14.811Z" fill="black"/>
</svg>
